<svg xmlns="http://www.w3.org/2000/svg" xmlns:xlink="http://www.w3.org/1999/xlink" viewBox="0 0 500 500" role="img" aria-hidden="true" focusable="false"><path fill="#B9CD94" d="M500 500H63.2C28.3 500 0 471.7 0 436.8V63.2C0 28.3 28.3 0 63.2 0h373.5c35 0 63.3 28.3 63.3 63.2V500z"/><path opacity=".8" fill="#FFF" d="M62.6 149.8c-11.1 0-20.2-9-20.2-20.2V63.9c0-11.1 9-20.2 20.2-20.2h53.7l2.7-7.4H62.6C47.4 36.3 35 48.7 35 63.9v65.8c0 15.2 12.4 27.6 27.6 27.6h.2v-7.4h-.2zM175 63.9c0-12.9-8.9-23.7-20.9-26.7l-2.6 7c9.2 1.9 16.1 10 16.1 19.7v86h-56.8c-1.4 2.6-2.9 5.1-4.5 7.4H175V63.9z"/><path fill="#FFF" stroke="#FFF" stroke-width="1.221" stroke-miterlimit="10" d="M73 150.3v14.8c9.1-.4 16.3-3.4 22.3-9.5 6.2-6.3 11.6-16.1 16.9-30.8L151.3 20h-18.9l-31.5 87.5-15.7-49.1H67.9l23 59.1c2.2 5.7 2.2 12 0 17.7-2.3 6-6.5 13-17.9 15.1z" opacity=".8"/><path fill="#9BAF76" d="M63.2 500H500V63.2c0-10.9-2.7-21.1-7.6-30l-85.4 124L321 335l-134.7-88.7L77.8 422.6 0 363.7v73c0 35 28.3 63.3 63.2 63.3z"/><defs><path id="a" d="M0 46h512v416H0z"/></defs><clipPath id="b"><use xlink:href="#a" overflow="visible"/></clipPath><g clip-path="url(#b)" fill="#114562"><path d="M-203.6 601.1c2.1-6.2 4.4-12.4 6.6-18.5 2.3-6.1 4.6-12.3 6.9-18.4 2.3-6.1 4.8-12.2 7.2-18.2l7.4-18.1c2.5-6 5-12 7.7-18 2.6-6 5.4-11.9 8.1-17.8l16.3-35.5 16.3-35.5c2.7-5.9 5.4-11.9 8.1-17.8l8-17.8 32.2-71.3 5.8-12.9 12 8.3L83.6 409.9 63.4 414l53-88.8 52.8-88.9 9.2-15.5 15.7 9.7 134.4 82.9-26.6 6.6 24.1-43 24.1-43c8-14.4 16-28.7 23.9-43.1l11.9-21.6 11.8-21.6 38.4 22.2-12.8 21-12.9 21.1c-8.5 14-16.9 28.2-25.4 42.3l-25.2 42.3-25 42.4-10.1 17.1-16.5-10.5L175 261l24.9-5.8-56.3 86.8-56.1 86.9-8.3 12.8-11.9-8.7L-75 329.1l17.8-4.6-35.5 69.7-8.9 17.4c-3 5.8-5.9 11.6-8.8 17.4l-17.6 34.9-17.6 34.9c-2.9 5.8-5.8 11.7-8.8 17.4-3 5.8-6.1 11.5-9.2 17.3l-9.6 17.1c-3.3 5.7-6.5 11.4-9.8 17-3.3 5.7-6.6 11.3-10 16.9-3.4 5.6-6.8 11.2-10.3 16.7l-.3-.1z"/><path d="M472.5 217.1V62.4l-134 77.3z"/></g><g clip-path="url(#b)"><path fill="#FEC228" d="M186.3 278.4c-18 0-32.7-14.7-32.7-32.7s14.7-32.7 32.7-32.7 32.7 14.7 32.7 32.7-14.7 32.7-32.7 32.7z"/><path fill="#114562" d="M186.3 220c14.2 0 25.7 11.5 25.7 25.7s-11.5 25.7-25.7 25.7-25.7-11.5-25.7-25.7 11.5-25.7 25.7-25.7m0-14c-21.9 0-39.7 17.8-39.7 39.7s17.8 39.7 39.7 39.7 39.7-17.8 39.7-39.7-17.8-39.7-39.7-39.7z"/></g><g clip-path="url(#b)"><path fill="#FEC228" d="M321.5 365.7c-20.5 0-37.2-16.7-37.2-37.2s16.7-37.2 37.2-37.2c20.5 0 37.2 16.7 37.2 37.2s-16.7 37.2-37.2 37.2z"/><path fill="#114562" d="M321.5 299.2c16.1 0 29.2 13.1 29.2 29.2s-13.1 29.2-29.2 29.2-29.2-13.1-29.2-29.2 13.1-29.2 29.2-29.2m0-16c-25 0-45.2 20.3-45.2 45.2s20.3 45.2 45.2 45.2 45.2-20.3 45.2-45.2-20.2-45.2-45.2-45.2z"/></g><g clip-path="url(#b)"><path fill="#FEC228" d="M77.8 450c-15.4 0-27.9-12.5-27.9-27.9 0-15.4 12.5-27.9 27.9-27.9s27.9 12.5 27.9 27.9c0 15.3-12.5 27.9-27.9 27.9z"/><path fill="#114562" d="M77.8 400.1c12.1 0 21.9 9.8 21.9 21.9s-9.8 22-21.9 22-21.9-9.8-21.9-21.9 9.8-22 21.9-22m0-12c-18.7 0-33.9 15.2-33.9 33.9s15.2 33.9 33.9 33.9 33.9-15.2 33.9-33.9-15.2-33.9-33.9-33.9z"/></g></svg>