<?xml version="1.0" encoding="utf-8"?>
<!-- Generator: Adobe Illustrator 18.1.1, SVG Export Plug-In . SVG Version: 6.00 Build 0)  -->
<!DOCTYPE svg PUBLIC "-//W3C//DTD SVG 1.1//EN" "http://www.w3.org/Graphics/SVG/1.1/DTD/svg11.dtd" [
	<!ENTITY ns_flows "http://ns.adobe.com/Flows/1.0/">
	<!ENTITY ns_extend "http://ns.adobe.com/Extensibility/1.0/">
	<!ENTITY ns_ai "http://ns.adobe.com/AdobeIllustrator/10.0/">
	<!ENTITY ns_graphs "http://ns.adobe.com/Graphs/1.0/">
]>
<svg version="1.1" xmlns:x="&ns_extend;" xmlns:i="&ns_ai;" xmlns:graph="&ns_graphs;"
	 xmlns="http://www.w3.org/2000/svg" xmlns:xlink="http://www.w3.org/1999/xlink" xmlns:a="http://ns.adobe.com/AdobeSVGViewerExtensions/3.0/"
	 x="0px" y="0px" viewBox="0 0 500 500" enable-background="new 0 0 500 500" xml:space="preserve">
<g id="BG">
</g>
<g id="BG_dark">
</g>
<g id="Layer_2">
	<g>
		<g>
			<path display="none" fill="none" stroke="#7C8AA1" stroke-width="18.0293" stroke-miterlimit="10" d="M661.9,547.7
				c0,43.8-35.4,79.3-79.1,79.3H445.2c-43.7,0-79.1-35.5-79.1-79.3V237.1c0-43.8,35.4-79.3,79.1-79.3h137.6
				c43.7,0,79.1,35.5,79.1,79.3V547.7z"/>
			<g display="none">
				<path display="inline" fill="#FEC228" d="M514,447.4c-30.4,0-55-24.6-55-55c0-30.4,24.6-55,55-55"/>
				<path display="inline" fill="#8BDA53" d="M514,324.1c-30.4,0-55-24.6-55-55s24.6-55,55-55"/>
				<path display="inline" fill="#FF443D" d="M514,570.7c-30.4,0-55-24.6-55-55s24.6-55,55-55"/>
			</g>
		</g>
	</g>
</g>
<g id="bg_light">
</g>
<g id="Clicky">
	<g id="border_2_kopie">
	</g>
	<g id="Y_2_kopie">
	</g>
</g>
<g id="BG_light">
</g>
<g id="bars">
</g>
<g id="bars_accents">
</g>
<g id="bars_dark">
</g>
<g id="borders">
</g>
<g id="borders_accent">
</g>
<g id="clicky">
	<path fill="#B9CD94" d="M500,500H63.2C28.3,500,0,471.7,0,436.8V63.2C0,28.3,28.3,0,63.2,0h373.5C471.7,0,500,28.3,500,63.2V500z"
		/>
	<g>
		<path opacity="0.8" fill="#FFFFFF" d="M62.6,149.8c-11.1,0-20.2-9-20.2-20.2V63.9c0-11.1,9-20.2,20.2-20.2h53.7l2.7-7.4H62.6
			C47.4,36.3,35,48.7,35,63.9v65.8c0,15.2,12.4,27.6,27.6,27.6h0.2v-7.4H62.6z"/>
		<path opacity="0.8" fill="#FFFFFF" d="M175,63.9c0-12.9-8.9-23.7-20.9-26.7l-2.6,7c9.2,1.9,16.1,10,16.1,19.7v86h-56.8
			c-1.4,2.6-2.9,5.1-4.5,7.4H175V63.9z"/>
		<g opacity="0.8">
			<g>
				<path fill="#FFFFFF" stroke="#FFFFFF" stroke-width="1.221" stroke-miterlimit="10" d="M73,150.3v14.8
					c9.1-0.4,16.3-3.4,22.3-9.5c6.2-6.3,11.6-16.1,16.9-30.8L151.3,20h-18.9l-31.5,87.5L85.2,58.4H67.9l23,59.1
					c2.2,5.7,2.2,12,0,17.7C88.6,141.2,84.4,148.2,73,150.3z"/>
			</g>
		</g>
	</g>
	<g>
		<path fill="#9BAF76" d="M63.2,500H500V63.2c0-10.9-2.7-21.1-7.6-30l-85.4,124L321,335l-134.7-88.7L77.8,422.6L0,363.7v73
			C0,471.7,28.3,500,63.2,500z"/>
	</g>
	<g>
		<defs>
			<rect id="SVGID_1_" y="46" width="512" height="416"/>
		</defs>
		<clipPath id="SVGID_2_">
			<use xlink:href="#SVGID_1_"  overflow="visible"/>
		</clipPath>
		<g clip-path="url(#SVGID_2_)">
			<g>
				<path fill="#114562" d="M-203.6,601.1c2.1-6.2,4.4-12.4,6.6-18.5c2.3-6.1,4.6-12.3,6.9-18.4c2.3-6.1,4.8-12.2,7.2-18.2l7.4-18.1
					c2.5-6,5-12,7.7-18c2.6-6,5.4-11.9,8.1-17.8l16.3-35.5l16.3-35.5c2.7-5.9,5.4-11.9,8.1-17.8l8-17.8l32.2-71.3l5.8-12.9l12,8.3
					L83.6,409.9L63.4,414l53-88.8l52.8-88.9l9.2-15.5l15.7,9.7l134.4,82.9l-26.6,6.6L326,277l24.1-43c8-14.4,16-28.7,23.9-43.1
					l11.9-21.6l11.8-21.6l38.4,22.2l-12.8,21L410.4,212c-8.5,14-16.9,28.2-25.4,42.3l-25.2,42.3L334.8,339l-10.1,17.1l-16.5-10.5
					L175,261l24.9-5.8L143.6,342l-56.1,86.9l-8.3,12.8l-11.9-8.7L-75,329.1l17.8-4.6l-35.5,69.7l-8.9,17.4c-3,5.8-5.9,11.6-8.8,17.4
					l-17.6,34.9l-17.6,34.9c-2.9,5.8-5.8,11.7-8.8,17.4c-3,5.8-6.1,11.5-9.2,17.3l-9.6,17.1c-3.3,5.7-6.5,11.4-9.8,17
					c-3.3,5.7-6.6,11.3-10,16.9c-3.4,5.6-6.8,11.2-10.3,16.7L-203.6,601.1z"/>
				<g>
					<polygon fill="#114562" points="472.5,217.1 472.5,62.4 338.5,139.7 					"/>
				</g>
			</g>
		</g>
		<g clip-path="url(#SVGID_2_)">
			<path fill="#FEC228" d="M186.3,278.4c-18,0-32.7-14.7-32.7-32.7s14.7-32.7,32.7-32.7s32.7,14.7,32.7,32.7
				S204.3,278.4,186.3,278.4z"/>
			<g>
				<path fill="#114562" d="M186.3,220c14.2,0,25.7,11.5,25.7,25.7s-11.5,25.7-25.7,25.7s-25.7-11.5-25.7-25.7S172.1,220,186.3,220
					 M186.3,206c-21.9,0-39.7,17.8-39.7,39.7s17.8,39.7,39.7,39.7s39.7-17.8,39.7-39.7S208.2,206,186.3,206L186.3,206z"/>
			</g>
		</g>
		<g clip-path="url(#SVGID_2_)">
			<path fill="#FEC228" d="M321.5,365.7c-20.5,0-37.2-16.7-37.2-37.2s16.7-37.2,37.2-37.2c20.5,0,37.2,16.7,37.2,37.2
				S342,365.7,321.5,365.7z"/>
			<path fill="#114562" d="M321.5,299.2c16.1,0,29.2,13.1,29.2,29.2s-13.1,29.2-29.2,29.2s-29.2-13.1-29.2-29.2
				S305.4,299.2,321.5,299.2 M321.5,283.2c-25,0-45.2,20.3-45.2,45.2s20.3,45.2,45.2,45.2s45.2-20.3,45.2-45.2
				S346.5,283.2,321.5,283.2L321.5,283.2z"/>
		</g>
		<g clip-path="url(#SVGID_2_)">
			<path fill="#FEC228" d="M77.8,450c-15.4,0-27.9-12.5-27.9-27.9c0-15.4,12.5-27.9,27.9-27.9s27.9,12.5,27.9,27.9
				C105.7,437.4,93.2,450,77.8,450z"/>
			<g>
				<path fill="#114562" d="M77.8,400.1c12.1,0,21.9,9.8,21.9,21.9S89.9,444,77.8,444s-21.9-9.8-21.9-21.9S65.7,400.1,77.8,400.1
					 M77.8,388.1c-18.7,0-33.9,15.2-33.9,33.9c0,18.7,15.2,33.9,33.9,33.9c18.7,0,33.9-15.2,33.9-33.9
					C111.7,403.3,96.5,388.1,77.8,388.1L77.8,388.1z"/>
			</g>
		</g>
	</g>
</g>
</svg>
